<?xml version="1.0" standalone="no"?>
<!DOCTYPE svg PUBLIC "-//W3C//DTD SVG 20010904//EN"
 "http://www.w3.org/TR/2001/REC-SVG-20010904/DTD/svg10.dtd">
<svg version="1.0" xmlns="http://www.w3.org/2000/svg"
 width="16.000000pt" height="16.000000pt" viewBox="0 0 16.000000 16.000000"
 preserveAspectRatio="xMidYMid meet">

<g transform="translate(0.000000,16.000000) scale(0.100000,-0.100000)"
fill="#000000" stroke="none">
<path d="M81 91 c-42 -82 -39 -91 5 -12 19 35 33 65 30 68 -2 3 -18 -22 -35
-56z"/>
<path d="M17 96 c-22 -17 -22 -23 6 -37 20 -11 21 -11 8 4 -11 14 -11 20 -1
32 15 18 11 19 -13 1z"/>
<path d="M129 97 c11 -14 11 -20 0 -34 -13 -15 -12 -15 9 -4 28 15 28 23 0 40
-21 13 -22 13 -9 -2z"/>
</g>
</svg>
